<svg id="e50lr79oe8q51" xmlns="http://www.w3.org/2000/svg" xmlns:xlink="http://www.w3.org/1999/xlink" viewBox="0 0 370 290" shape-rendering="geometricPrecision" text-rendering="geometricPrecision" width="370" height="290"><g id="e50lr79oe8q52"><path id="e50lr79oe8q53" d="M185,291L121,291L121,193C121,148.339000,146,142,146,142C158.452000,141.344000,185,141,185,141C185,141,211.548000,141.344000,224,142C224,142,249,148.339000,249,193L249,291L185,291Z" fill="rgb(255,255,255)" fill-rule="evenodd" stroke="none" stroke-width="1"/><path id="e50lr79oe8q54" d="M235,203.500000C235,211.508129,228.508129,218,220.500000,218C212.491871,218,206,211.508129,206,203.500000L206,186L235,186L235,203.500000Z" fill="rgb(221,221,221)" fill-rule="evenodd" stroke="none" stroke-width="1"/><path id="e50lr79oe8q55" d="M235,201.500000C235,209.508129,228.508129,216,220.500000,216C212.491871,216,206,209.508129,206,201.500000L206,184L235,184L235,201.500000Z" fill="rgb(245,245,245)" fill-rule="evenodd" stroke="none" stroke-width="1"/><path id="e50lr79oe8q56" d="M223.221000,187C223.221000,187,215.521000,201.948000,215.321000,205.271000C215.121000,208.594000,216.853000,206.271000,217.096000,205.309000C217.339000,204.347000,218.006000,201.490000,218.963000,198.462000C219.963000,195.287000,223.224000,187,223.224000,187M225.924000,192.050000C225.924000,192.050000,220.594000,203.136000,220.515000,205.578000C220.436000,208.020000,221.659000,206.289000,221.815000,205.578000C221.971000,204.867000,222.401000,202.762000,223.038000,200.526000C223.708000,198.181000,225.921000,192.050000,225.921000,192.050000M227.528000,196.678000C227.528000,196.678000,223.896000,204.233000,223.842000,205.895000C223.788000,207.557000,224.622000,206.380000,224.730000,205.895000C224.838000,205.410000,225.130000,203.977000,225.564000,202.453000C226.020000,200.853000,227.528000,196.678000,227.528000,196.678000M230,199.948000L212,199.948000L212,199.809000L230,199.809000L230,199.948000Z" fill="rgb(88,89,91)" fill-rule="evenodd" stroke="none" stroke-width="1"/><rect id="e50lr79oe8q57" width="2" height="67" rx="0" ry="0" transform="matrix(1 0 0 1 184 224)" fill="rgb(221,221,221)" stroke="none" stroke-width="1"/></g><g id="e50lr79oe8q58"><path id="e50lr79oe8q59" d="M208,140L185,162L162,140C168.300000,134.248000,168,119,168,119L202,119C202,119,201.700000,134.248000,208,140Z" fill="rgb(249,161,123)" fill-rule="evenodd" stroke="none" stroke-width="1"/><path id="e50lr79oe8q510" d="M185,119L202,119C201.988005,123.423437,202.554474,127.829454,203.685000,132.106000C194.580000,140.500000,185,140,185,140C185,140,175.417000,140.500000,166.333000,132.043000C167.450595,127.785760,168.010941,123.401476,168,119L185,119Z" fill="rgb(235,152,116)" fill-rule="evenodd" stroke="none" stroke-width="1"/><g id="e50lr79oe8q511" transform="matrix(1 0 0 1 -1.39968871500002 0.79861832000000)"><path id="e50lr79oe8q512" d="M211.706000,78.751000C219.472000,125.920000,190.623000,132.023000,190.623000,132.023000C190.623000,132.023000,162.715000,141.123000,145.876000,96.390000C145.876000,96.390000,121.803000,42.790000,163.706000,31.566000C205.800000,20.289000,211.706000,78.751000,211.706000,78.751000Z" fill="rgb(249,161,123)" fill-rule="evenodd" stroke="none" stroke-width="1"/><path id="e50lr79oe8q513" d="M211.146000,78.639000C218.157000,121.221000,195.754000,130.813000,190.734000,132.411000L190.734000,132.421000C190.734000,132.421000,190.564000,132.476000,190.245000,132.557000C189.926000,132.638000,189.754000,132.684000,189.754000,132.684000L189.754000,132.673000C184.608000,133.801000,160.411000,136.694000,145.191000,96.312000C143.725799,92.876650,142.484864,89.349920,141.476000,85.754000L144.272000,85C144.272000,85,157.887000,113.480000,170.396000,111.625000C170.396000,111.625000,173.201000,107.030000,182.151000,104.292000L182.143000,104.261000C182.312000,104.215000,182.470000,104.187000,182.637000,104.145000C182.804000,104.103000,182.953000,104.045000,183.122000,103.998000L183.131000,104.029000C192.251000,101.929000,196.977000,104.502000,196.977000,104.502000C208.738000,99.854000,206.289000,68.383000,206.289000,68.383000L209.089000,67.634000C210.011465,71.254093,210.698568,74.930116,211.146000,78.639000Z" opacity="0.15" fill="rgb(0,0,0)" fill-rule="evenodd" stroke="none" stroke-width="1"/><path id="e50lr79oe8q514" d="M141.994000,81.900000C141.994000,81.900000,152.041000,67.410000,156.464000,62.494000C156.464000,62.494000,183.341000,63.994000,203.037000,62.438000L196.307000,37.324000L133.522000,54.149000Z" fill="rgb(235,152,116)" fill-rule="evenodd" stroke="none" stroke-width="1"/><path id="e50lr79oe8q515" d="M145.169000,97.615000C145.169000,97.615000,146.718000,99.327000,147.101000,97.097000C147.484000,94.867000,142.554000,81.971000,142.701000,80.676000C142.848000,79.381000,142.959000,71.106000,147.771000,64.824000C150.104725,62.060754,151.027819,58.372810,150.271000,54.836000C149.514181,51.299190,168.901000,58.736000,187.892000,56.144000C187.892000,56.144000,205.204000,62.407000,211.111000,80.981000C211.111000,80.981000,212.675000,83.958000,213.043000,80.463000C216.280708,77.606314,218.868207,74.088569,220.631000,70.147000C223.737000,62.891000,216.359000,55.663000,217.387000,50.311000C218.415000,44.959000,216.434000,34.464000,204.862000,26.750000C193.290000,19.036000,183.786000,7.494000,161.118000,21.907000C158.646782,24.430328,155.597799,26.313331,152.235000,27.393000C148.872201,28.472669,132.208000,27.393000,126.935000,37.279000C121.662000,47.165000,120.272000,52.714000,126.126000,61.307000C131.980000,69.900000,129.092000,76.248000,129.301000,77.021000C129.510000,77.794000,132.462000,90.342000,144.395000,94.721000Z" fill="rgb(55,64,72)" fill-rule="evenodd" stroke="none" stroke-width="1"/><path id="e50lr79oe8q516" d="M146.648000,41.314000C146.648000,41.314000,152.413000,23.905000,174.779000,26.529000C197.145000,29.153000,195.879000,46.229000,207.538000,56.057000C207.538000,56.057000,195.919000,47.807000,191.547000,42.742000C187.175000,37.677000,164.678000,30.374000,153.478000,43.625000C153.478000,43.625000,147.633000,50.535000,146.648000,41.314000Z" fill="rgb(75,83,91)" fill-rule="evenodd" stroke="none" stroke-width="1"/><path id="e50lr79oe8q517" d="M221.136000,82.129000C221.036000,98.912000,212.548000,97.936000,212.548000,97.936000L210.864000,79.687000C213.027000,75.961000,211.778000,71.131000,211.778000,71.131000C220.042000,64.558000,221.136000,82.129000,221.136000,82.129000ZM139.700000,104.256000C139.700000,104.256000,131.983000,88.521000,142.130000,90.147000C142.130000,90.147000,143.458000,94.938000,147.099000,97.098000L154.655000,113.709000C154.655000,113.709000,148.028000,118.724000,139.700000,104.256000Z" fill="rgb(249,161,123)" fill-rule="evenodd" stroke="none" stroke-width="1"/><g id="e50lr79oe8q518"><path id="e50lr79oe8q519" d="M169.246000,76.777000C169.246000,76.777000,158.809000,75.520000,154.508000,77.645000C150.207000,79.770000,149.771000,85.223000,151.985000,84.397000C154.199000,83.571000,167.298000,78.547000,168.604000,79.137000C168.600000,79.136000,171.059000,78.693000,169.246000,76.777000Z" fill="rgb(55,64,72)" fill-rule="evenodd" stroke="none" stroke-width="1"/><path id="e50lr79oe8q520" d="M180.382000,68.100000C180.382000,68.100000,190.138000,64.185000,194.841000,65.124000C199.544000,66.063000,201.379000,71.218000,199.026000,70.993000C196.673000,70.768000,182.726000,69.305000,181.612000,70.213000C181.612000,70.211000,179.126000,70.418000,180.382000,68.100000Z" fill="rgb(55,64,72)" fill-rule="evenodd" stroke="none" stroke-width="1"/><path id="e50lr79oe8q521" d="M191.136000,75.981000C192.736000,75.552000,194.497000,76.934000,195.069000,79.068000C195.641000,81.202000,194.807000,83.279000,193.206000,83.708000C191.605000,84.137000,189.845000,82.755000,189.273000,80.621000C188.701000,78.487000,189.536000,76.410000,191.136000,75.981000Z" fill="rgb(78,55,55)" fill-rule="evenodd" stroke="none" stroke-width="1"/><path id="e50lr79oe8q522" d="M162.158000,83.745000C163.758000,83.316000,165.519000,84.698000,166.091000,86.832000C166.663000,88.966000,165.829000,91.043000,164.229000,91.472000C162.629000,91.901000,160.867000,90.519000,160.296000,88.385000C159.725000,86.251000,160.558000,84.174000,162.158000,83.745000Z" fill="rgb(78,55,55)" fill-rule="evenodd" stroke="none" stroke-width="1"/><path id="e50lr79oe8q523" d="M182.235000,102.178000C182.078240,102.219755,181.913927,102.224547,181.755000,102.192000C181.524000,102.144000,181.209000,102.112000,180.849000,102.073000C179.321000,101.908000,177.014000,101.658000,176.005000,100.129000C175.464602,99.233226,175.378610,98.134967,175.773000,97.166000C176.349000,95.390000,175.939000,86.358000,175.544000,81.083000C175.508503,80.525522,175.928868,80.043575,176.486000,80.003000C176.751774,79.977460,177.016725,80.059265,177.221839,80.230193C177.426953,80.401122,177.555194,80.646977,177.578000,80.913000C177.685000,82.349000,178.600000,95.023000,177.715000,97.750000C177.525400,98.156426,177.527601,98.626368,177.721000,99.031000C178.213000,99.776000,180.021000,99.971000,181.096000,100.088000C181.535000,100.135000,181.919000,100.180000,182.196000,100.238000C182.457079,100.289537,182.686284,100.444316,182.831632,100.667233C182.976980,100.890150,183.026154,101.162315,182.968000,101.422000C182.881277,101.789618,182.599764,102.079964,182.235000,102.178000Z" fill="rgb(212,137,105)" fill-rule="evenodd" stroke="none" stroke-width="1"/><path id="e50lr79oe8q524" d="M183.411000,107.038000C186.878000,106.109000,190.674000,109.032000,191.889000,113.566000C193.104000,118.100000,191.278000,122.530000,187.811000,123.459000C184.344000,124.388000,180.547000,121.465000,179.332000,116.931000C178.117000,112.397000,179.943000,107.967000,183.411000,107.038000Z" fill="rgb(152,98,75)" fill-rule="evenodd" stroke="none" stroke-width="1"/><path id="e50lr79oe8q525" d="M178.427000,113.550000C178.427000,113.550000,185.327000,110.311000,190.984000,110.186000C190.984000,110.186000,188.421000,105.696000,183.984000,106.886000L182.842000,107.192000C182.842000,107.192000,179.300000,108.165000,178.427000,113.550000Z" fill="rgb(255,255,255)" fill-rule="evenodd" stroke="none" stroke-width="1"/></g></g></g><g id="e50lr79oe8q526"><path id="e50lr79oe8q527" d="M185,227L165,155L205,155Z" fill="rgb(79,152,163)" fill-rule="evenodd" stroke="none" stroke-width="1"/><path id="e50lr79oe8q528" d="M185,227L176.740000,197.264000L181,170L189,170L193.260000,197.264000Z" fill="rgb(10,59,105)" fill-rule="evenodd" stroke="none" stroke-width="1"/><path id="e50lr79oe8q529" d="M193,164C193,168.418278,189.418278,172,185,172C180.581722,172,177,168.418278,177,164L177,157L193,157L193,164Z" fill="rgb(12,72,129)" fill-rule="evenodd" stroke="none" stroke-width="1"/><path id="e50lr79oe8q530" d="M196,172C193.306446,166.059216,189.582298,160.642273,185,156L208,132C217.278000,134.859000,220,142,220,142C218.536000,144.333000,196,172,196,172ZM150,142C150,142,152.722000,134.859000,162,132L185,156C180.417702,160.642273,176.693554,166.059216,174,172C171.306446,177.940784,151.464000,144.333000,150,142Z" fill="rgb(92,178,191)" fill-rule="evenodd" stroke="none" stroke-width="1"/></g><g id="e50lr79oe8q531"><path id="e50lr79oe8q532" d="M136,197L145,143C145,143,114.987000,155.835000,113,158C111.013000,160.165000,88.053000,224.171000,90,238C90,238,84.800000,255.100000,99,258C99,258,118.118000,263.100000,136,197Z" fill="rgb(255,255,255)" fill-rule="evenodd" stroke="none" stroke-width="1"/><path id="e50lr79oe8q533" d="M136,197C136,197,131.063000,222.881000,125,237L121,262L121,235C121,235,135.416000,198.020000,136,197Z" fill="rgb(221,221,221)" fill-rule="evenodd" stroke="none" stroke-width="1"/><g id="e50lr79oe8q534"><path id="e50lr79oe8q535" d="M96,203C97.172000,203.129000,106.849000,212.100000,109.252000,222.331000L109.012000,236.889000C109.012000,236.889000,94.828000,202.871000,96,203Z" fill="rgb(221,221,221)" fill-rule="evenodd" stroke="none" stroke-width="1"/><g id="e50lr79oe8q536"><path id="e50lr79oe8q537" d="M76.146000,167.156000C76.146000,167.156000,68.827000,154.438000,67.746000,152.426000C66.665000,150.414000,64.490000,137.326000,60.894000,132.457000C57.298000,127.588000,51,118.674000,50.353000,117.535000C49.706000,116.396000,46.280000,117.835000,46.759000,121.516000C47.238000,125.197000,52.126000,134.416000,53.112000,134.988000C54.098000,135.560000,35.557000,132.188000,32.764000,133.170000C32.764000,133.170000,20.393000,131.591000,18.746000,132.994000C18.746000,132.994000,12.487000,135.543000,18.269000,138.328000C18.269000,138.328000,11.817000,139.982000,17.793000,143.663000C17.793000,143.663000,16.563000,149.693000,23.552000,151.705000C31.247752,157.207182,40.246310,160.605511,49.658000,161.564000C59.069690,162.522489,56.095000,167.915000,57.177000,174.064000Z" fill="rgb(249,161,123)" fill-rule="evenodd" stroke="none" stroke-width="1"/><path id="e50lr79oe8q538" d="M47.281000,139.844000C47.281000,139.844000,40.161000,148.579000,41.663000,154.398000L31.240000,150.240000L38.740000,150.910000C38.740000,150.910000,41.840000,148.032000,41.358000,145.767000C41.358000,145.767000,39.951000,143.127000,42.715000,142.667000C43.534713,141.834726,44.017993,140.728916,44.072000,139.562000L44.072000,139.562000C44.207880,138.823005,44.670579,138.185057,45.330830,137.826385C45.991082,137.467713,46.778097,137.426772,47.472000,137.715000C47.823226,138.402313,47.748955,139.230179,47.281000,139.844000Z" fill="rgb(212,137,105)" fill-rule="evenodd" stroke="none" stroke-width="1"/></g><path id="e50lr79oe8q539" d="M55.082000,175.913000L51.269000,165.547000C51.269000,165.547000,70.403000,156.547000,75.607000,155.920000L79.420000,166.286000Z" fill="rgb(92,178,191)" fill-rule="evenodd" stroke="none" stroke-width="1"/><path id="e50lr79oe8q540" d="M78.213000,160.624000C78.213000,160.624000,56.144000,169.838000,53.081000,172.173000C53.641000,173.033000,58.952000,233.234000,94.442000,256.299000C94.442000,256.299000,108.025000,261.204000,110.400000,249.204000C110.400000,249.200000,119.781000,234.430000,78.213000,160.624000Z" fill="rgb(255,255,255)" fill-rule="evenodd" stroke="none" stroke-width="1"/></g><path id="e50lr79oe8q541" d="M115,161C115,161,119.488000,177.021000,131,187C131,187,115.578000,178.700000,115,161Z" fill="rgb(221,221,221)" fill-rule="evenodd" stroke="none" stroke-width="1"/><path id="e50lr79oe8q542" d="M241,188C241,188,243.358000,225.913000,242,229C240.642000,232.087000,237.575000,286.425000,233,291L245,291L249,218Z" fill="rgb(221,221,221)" fill-rule="evenodd" stroke="none" stroke-width="1"/><path id="e50lr79oe8q543" d="M225.033000,143C225.033000,143,255.063000,155.884000,257.051000,158.057000C259.039000,160.230000,281.246000,214.342000,279,233C279,233,275.855000,268.910000,270,291L241,291C241,291,242.880000,228.430000,245,223L238,179Z" fill="rgb(255,255,255)" fill-rule="evenodd" stroke="none" stroke-width="1"/><path id="e50lr79oe8q544" d="M255,161C255,161,250.512000,177.021000,239,187C239,187,254.422000,178.700000,255,161Z" fill="rgb(221,221,221)" fill-rule="evenodd" stroke="none" stroke-width="1"/></g><script><![CDATA[!function(t,n){"object"==typeof exports&&"undefined"!=typeof module?module.exports=n():"function"==typeof define&&define.amd?define(n):(t=t||self).__SVGATOR_PLAYER__=n()}(this,(function(){"use strict";function t(n){return(t="function"==typeof Symbol&&"symbol"==typeof Symbol.iterator?function(t){return typeof t}:function(t){return t&&"function"==typeof Symbol&&t.constructor===Symbol&&t!==Symbol.prototype?"symbol":typeof t})(n)}function n(t,n){if(!(t instanceof n))throw new TypeError("Cannot call a class as a function")}function r(t,n){for(var r=0;r<n.length;r++){var e=n[r];e.enumerable=e.enumerable||!1,e.configurable=!0,"value"in e&&(e.writable=!0),Object.defineProperty(t,e.key,e)}}function e(t,n,e){return n&&r(t.prototype,n),e&&r(t,e),t}var i=1e-5,u=Math.abs;function o(t){return t}function a(t,n,r){var e=1-r;return 3*r*e*(t*e+n*r)+r*r*r}function l(){var t=arguments.length>0&&void 0!==arguments[0]?arguments[0]:0,n=arguments.length>1&&void 0!==arguments[1]?arguments[1]:0,r=arguments.length>2&&void 0!==arguments[2]?arguments[2]:1,e=arguments.length>3&&void 0!==arguments[3]?arguments[3]:1;return t<0||t>1||r<0||r>1?null:u(t-n)<=i&&u(r-e)<=i?o:function(o){if(o<=0)return t>0?o*n/t:0===n&&r>0?o*e/r:0;if(o>=1)return r<1?1+(o-1)*(e-1)/(r-1):1===r&&t<1?1+(o-1)*(n-1)/(t-1):1;for(var l,f=0,s=1;f<s;){var c=a(t,r,l=(f+s)/2);if(u(o-c)<i)break;c<o?f=l:s=l}return a(n,e,l)}}function f(){return 1}function s(t){return 1===t?1:0}function c(){var t=arguments.length>0&&void 0!==arguments[0]?arguments[0]:1,n=arguments.length>1&&void 0!==arguments[1]?arguments[1]:0;if(1===t){if(0===n)return s;if(1===n)return f}var r=1/t;return function(t){return t>=1?1:(t+=n*r)-t%r}}function v(t){var n=arguments.length>1&&void 0!==arguments[1]?arguments[1]:2;if(Number.isInteger(t))return t;var r=Math.pow(10,n);return Math.round(t*r)/r}var h=Math.PI/180;function y(t,n,r){return t>=.5?r:n}function d(t,n,r){return 0===t||n===r?n:t*(r-n)+n}function g(t,n,r){var e=d(t,n,r);return e<=0?0:e}function m(t,n,r){return 0===t?n:1===t?r:{x:d(t,n.x,r.x),y:d(t,n.y,r.y)}}function p(t,n,r){return 0===t?n:1===t?r:{x:g(t,n.x,r.x),y:g(t,n.y,r.y)}}function b(t,n,r){var e=function(t,n,r){return Math.round(d(t,n,r))}(t,n,r);return e<=0?0:e>=255?255:e}function w(t,n,r){return 0===t?n:1===t?r:{r:b(t,n.r,r.r),g:b(t,n.g,r.g),b:b(t,n.b,r.b),a:d(t,null==n.a?1:n.a,null==r.a?1:r.a)}}function A(t,n,r){if(0===t)return n;if(1===t)return r;var e=n.length;if(e!==r.length)return y(t,n,r);for(var i=[],u=0;u<e;u++)i.push(w(t,n[u],r[u]));return i}function x(t,n,r){var e=n.length;if(e!==r.length)return y(t,n,r);for(var i=new Array(e),u=0;u<e;u++)i[u]=d(t,n[u],r[u]);return i}function k(t,n){for(var r=[],e=0;e<t;e++)r.push(n);return r}function S(t,n){if(--n<=0)return t;var r=(t=Object.assign([],t)).length;do{for(var e=0;e<r;e++)t.push(t[e])}while(--n>0);return t}var _=6,M=/\.0+$/g;function I(t){return Number.isInteger(t)?t+"":t.toFixed(_).replace(M,"")}function E(t){var n=arguments.length>1&&void 0!==arguments[1]?arguments[1]:" ";return t&&t.length?t.map(I).join(n):""}function F(t){return I(t.x)+","+I(t.y)}function B(t){return t?null==t.a||t.a>=1?"rgb("+t.r+","+t.g+","+t.b+")":"rgba("+t.r+","+t.g+","+t.b+","+t.a+")":"transparent"}var j={f:null,i:p,u:function(t,n){return function(r){var e=n(r);t.setAttribute("rx",I(e.x)),t.setAttribute("ry",I(e.y))}}},q={f:null,i:function(t,n,r){return 0===t?n:1===t?r:{width:g(t,n.width,r.width),height:g(t,n.height,r.height)}},u:function(t,n){return function(r){var e=n(r);t.setAttribute("width",I(e.width)),t.setAttribute("height",I(e.height))}}},P=Math.sin,O=Math.cos,z=Math.acos,L=Math.asin,C=Math.tan,R=Math.atan2,T=Math.PI/180,V=180/Math.PI,D=Math.sqrt,N=function(){function t(){var r=arguments.length>0&&void 0!==arguments[0]?arguments[0]:1,e=arguments.length>1&&void 0!==arguments[1]?arguments[1]:0,i=arguments.length>2&&void 0!==arguments[2]?arguments[2]:0,u=arguments.length>3&&void 0!==arguments[3]?arguments[3]:1,o=arguments.length>4&&void 0!==arguments[4]?arguments[4]:0,a=arguments.length>5&&void 0!==arguments[5]?arguments[5]:0;n(this,t),this.m=[r,e,i,u,o,a],this.i=null,this.w=null,this.s=null}return e(t,[{key:"point",value:function(t,n){var r=this.m;return{x:r[0]*t+r[2]*n+r[4],y:r[1]*t+r[3]*n+r[5]}}},{key:"translateSelf",value:function(){var t=arguments.length>0&&void 0!==arguments[0]?arguments[0]:0,n=arguments.length>1&&void 0!==arguments[1]?arguments[1]:0;if(!t&&!n)return this;var r=this.m;return r[4]+=r[0]*t+r[2]*n,r[5]+=r[1]*t+r[3]*n,this.w=this.s=this.i=null,this}},{key:"rotateSelf",value:function(){var t=arguments.length>0&&void 0!==arguments[0]?arguments[0]:0;if(t%=360){var n=P(t*=T),r=O(t),e=this.m,i=e[0],u=e[1];e[0]=i*r+e[2]*n,e[1]=u*r+e[3]*n,e[2]=e[2]*r-i*n,e[3]=e[3]*r-u*n,this.w=this.s=this.i=null}return this}},{key:"scaleSelf",value:function(){var t=arguments.length>0&&void 0!==arguments[0]?arguments[0]:1,n=arguments.length>1&&void 0!==arguments[1]?arguments[1]:1;if(1!==t||1!==n){var r=this.m;r[0]*=t,r[1]*=t,r[2]*=n,r[3]*=n,this.w=this.s=this.i=null}return this}},{key:"skewSelf",value:function(t,n){if(n%=360,(t%=360)||n){var r=this.m,e=r[0],i=r[1],u=r[2],o=r[3];t&&(t=C(t*T),r[2]+=e*t,r[3]+=i*t),n&&(n=C(n*T),r[0]+=u*n,r[1]+=o*n),this.w=this.s=this.i=null}return this}},{key:"resetSelf",value:function(){var t=arguments.length>0&&void 0!==arguments[0]?arguments[0]:1,n=arguments.length>1&&void 0!==arguments[1]?arguments[1]:0,r=arguments.length>2&&void 0!==arguments[2]?arguments[2]:0,e=arguments.length>3&&void 0!==arguments[3]?arguments[3]:1,i=arguments.length>4&&void 0!==arguments[4]?arguments[4]:0,u=arguments.length>5&&void 0!==arguments[5]?arguments[5]:0,o=this.m;return o[0]=t,o[1]=n,o[2]=r,o[3]=e,o[4]=i,o[5]=u,this.w=this.s=this.i=null,this}},{key:"recomposeSelf",value:function(){var t=arguments.length>0&&void 0!==arguments[0]?arguments[0]:null,n=arguments.length>1&&void 0!==arguments[1]?arguments[1]:null,r=arguments.length>2&&void 0!==arguments[2]?arguments[2]:null,e=arguments.length>3&&void 0!==arguments[3]?arguments[3]:null,i=arguments.length>4&&void 0!==arguments[4]?arguments[4]:null;return this.isIdentity||this.resetSelf(),t&&(t.x||t.y)&&this.translateSelf(t.x,t.y),n&&this.rotateSelf(n),r&&(r.x&&this.skewSelf(r.x,0),r.y&&this.skewSelf(0,r.y)),!e||1===e.x&&1===e.y||this.scaleSelf(e.x,e.y),i&&(i.x||i.y)&&this.translateSelf(i.x,i.y),this}},{key:"decompose",value:function(){var t=arguments.length>0&&void 0!==arguments[0]?arguments[0]:0,n=arguments.length>1&&void 0!==arguments[1]?arguments[1]:0,r=this.m,e=r[0]*r[0]+r[1]*r[1],i=[[r[0],r[1]],[r[2],r[3]]],u=D(e);if(0===u)return{origin:{x:r[4],y:r[5]},translate:{x:t,y:n},scale:{x:0,y:0},skew:{x:0,y:0},rotate:0};i[0][0]/=u,i[0][1]/=u;var o=r[0]*r[3]-r[1]*r[2]<0;o&&(u=-u);var a=i[0][0]*i[1][0]+i[0][1]*i[1][1];i[1][0]-=i[0][0]*a,i[1][1]-=i[0][1]*a;var l=D(i[1][0]*i[1][0]+i[1][1]*i[1][1]);if(0===l)return{origin:{x:r[4],y:r[5]},translate:{x:t,y:n},scale:{x:u,y:0},skew:{x:0,y:0},rotate:0};i[1][0]/=l,i[1][1]/=l,a/=l;var f=0;return i[1][1]<0?(f=z(i[1][1])*V,i[0][1]<0&&(f=360-f)):f=L(i[0][1])*V,o&&(f=-f),a=R(a,D(i[0][0]*i[0][0]+i[0][1]*i[0][1]))*V,{origin:{x:r[4],y:r[5]},translate:{x:t,y:n},scale:{x:u,y:l},skew:{x:a,y:0},rotate:f}}},{key:"toString",value:function(){return null===this.s&&(this.s="matrix("+this.m.map($).join(" ")+")"),this.s}},{key:"determinant",get:function(){var t=this.m;return t[0]*t[3]-t[1]*t[2]}},{key:"isIdentity",get:function(){if(null===this.i){var t=this.m;this.i=1===t[0]&&0===t[1]&&0===t[2]&&1===t[3]&&0===t[4]&&0===t[5]}return this.i}}]),t}(),G=/\.0+$/;function $(t){return Number.isInteger(t)?t:t.toFixed(14).replace(G,"")}Object.freeze({M:2,L:2,Z:0,H:1,V:1,C:6,Q:4,T:2,S:4,A:7});function H(t,n,r){return t+(n-t)*r}function Q(t,n,r){var e=arguments.length>3&&void 0!==arguments[3]&&arguments[3],i={x:H(t.x,n.x,r),y:H(t.y,n.y,r)};return e&&(i.a=function(t,n){return Math.atan2(n.y-t.y,n.x-t.x)}(t,n)),i}function U(t,n,r,e){var i=1-e;return i*i*t+2*i*e*n+e*e*r}function Y(t,n,r,e){return 2*(1-e)*(n-t)+2*e*(r-n)}function Z(t,n,r,e){var i=arguments.length>4&&void 0!==arguments[4]&&arguments[4],u={x:U(t.x,n.x,r.x,e),y:U(t.y,n.y,r.y,e)};return i&&(u.a=function(t,n,r,e){return Math.atan2(Y(t.y,n.y,r.y,e),Y(t.x,n.x,r.x,e))}(t,n,r,e)),u}function J(t,n,r,e,i){var u=i*i;return i*u*(e-t+3*(n-r))+3*u*(t+r-2*n)+3*i*(n-t)+t}function K(t,n,r,e,i){var u=1-i;return 3*(u*u*(n-t)+2*u*i*(r-n)+i*i*(e-r))}function W(t,n,r,e,i){var u=arguments.length>5&&void 0!==arguments[5]&&arguments[5],o={x:J(t.x,n.x,r.x,e.x,i),y:J(t.y,n.y,r.y,e.y,i)};return u&&(o.a=function(t,n,r,e,i){return Math.atan2(K(t.y,n.y,r.y,e.y,i),K(t.x,n.x,r.x,e.x,i))}(t,n,r,e,i)),o}function X(t,n,r){var e,i=arguments.length>3&&void 0!==arguments[3]&&arguments[3];if(nt(n)){if(null!=(e=r).start&&!nt(e))return Z(n,r.start,r,t,i)}else if(nt(r)){if(n.end)return Z(n,n.end,r,t,i)}else{if(n.end)return r.start?W(n,n.end,r.start,r,t,i):Z(n,n.end,r,t,i);if(r.start)return Z(n,r.start,r,t,i)}return Q(n,r,t,i)}function tt(t,n,r){var e=X(t,n,r,!0);return e.a=function(t){return arguments.length>1&&void 0!==arguments[1]&&arguments[1]?t+Math.PI:t}(e.a)/h,e}function nt(t){return!t.type||"corner"===t.type}var rt=new N;var et={f:function(t){return t?t.join(" "):""},i:function(n,r,e){if(0===n)return r;if(1===n)return e;var i=r.length;if(i!==e.length)return y(n,r,e);for(var u,o=new Array(i),a=0;a<i;a++){if((u=t(r[a]))!==t(e[a]))return y(n,r,e);if("number"===u)o[a]=d(n,r[a],e[a]);else{if(r[a]!==e[a])return y(n,r,e);o[a]=r[a]}}return o}},it={f:null,i:x,u:function(t,n){return function(r){var e=n(r);t.setAttribute("x1",I(e[0])),t.setAttribute("y1",I(e[1])),t.setAttribute("x2",I(e[2])),t.setAttribute("y2",I(e[3]))}}},ut={f:I,i:d},ot={f:I,i:function(t,n,r){var e=d(t,n,r);return e<=0?0:e>=1?1:e}},at={f:E,i:function(t,n,r){var e,i,u,o=n.length,a=r.length;if(o!==a)if(0===o)n=k(o=a,0);else if(0===a)a=o,r=k(o,0);else{var l=(u=(e=o)*(i=a)/function(t,n){for(var r;n;)r=n,n=t%n,t=r;return t||1}(e,i))<0?-u:u;n=S(n,Math.floor(l/o)),r=S(r,Math.floor(l/a)),o=a=l}for(var f=[],s=0;s<o;s++)f.push(v(g(t,n[s],r[s]),6));return f}};function lt(t,n,r,e,i,u,o,a){return n=function(t,n,r){for(var e,i,u,o=t.length-1,a={},l=0;l<=o;l++)(e=t[l]).e&&(e.e=n(e.e)),e.v&&"g"===(i=e.v).t&&i.r&&(u=r.getElementById(i.r))&&(a[i.r]=u.querySelectorAll("stop"));return a}(t,e,a),function(e){var i,u=r(e,t,ft);return u?"c"===u.t?B(u.v):"g"===u.t?(n[u.r]&&function(t,n){for(var r=0,e=t.length;r<e;r++)t[r].setAttribute("stop-color",B(n[r]))}(n[u.r],u.v),(i=u.r)?"url(#"+i+")":"none"):"none":"none"}}function ft(t,n,r){if(0===t)return n;if(1===t)return r;if(n&&r){var e=n.t;if(e===r.t)switch(n.t){case"c":return{t:e,v:w(t,n.v,r.v)};case"g":if(n.r===r.r)return{t:e,v:A(t,n.v,r.v),r:n.r}}}return y(t,n,r)}var st={blur:p,brightness:g,contrast:g,"drop-shadow":function(t,n,r){return 0===t?n:1===t?r:{blur:p(t,n.blur,r.blur),offset:m(t,n.offset,r.offset),color:w(t,n.color,r.color)}},grayscale:g,"hue-rotate":d,invert:g,opacity:g,saturate:g,sepia:g};function ct(t,n,r){if(0===t)return n;if(1===t)return r;var e=n.length;if(e!==r.length)return y(t,n,r);for(var i,u=[],o=0;o<e;o++){if(n[o].type!==r[o].type)return n;if(!(i=st[n[o].type]))return y(t,n,r);u.push({type:n.type,value:i(t,n[o].value,r[o].value)})}return u}var vt={blur:function(t){return t?function(n){t.setAttribute("stdDeviation",F(n))}:null},brightness:function(t,n,r){return(t=yt(r,n))?function(n){n=I(n),t.map((function(t){return t.setAttribute("slope",n)}))}:null},contrast:function(t,n,r){return(t=yt(r,n))?function(n){var r=I((1-n)/2);n=I(n),t.map((function(t){t.setAttribute("slope",n),t.setAttribute("intercept",r)}))}:null},"drop-shadow":function(t,n,r){var e=r.getElementById(n+"-blur");if(!e)return null;var i=r.getElementById(n+"-offset");if(!i)return null;var u=r.getElementById(n+"-flood");return u?function(t){e.setAttribute("stdDeviation",F(t.blur)),i.setAttribute("dx",I(t.offset.x)),i.setAttribute("dy",I(t.offset.y)),u.setAttribute("flood-color",B(t.color))}:null},grayscale:function(t){return t?function(n){t.setAttribute("values",E(function(t){return[.2126+.7874*(t=1-t),.7152-.7152*t,.0722-.0722*t,0,0,.2126-.2126*t,.7152+.2848*t,.0722-.0722*t,0,0,.2126-.2126*t,.7152-.7152*t,.0722+.9278*t,0,0,0,0,0,1,0]}(n)))}:null},"hue-rotate":function(t){return t?function(n){return t.setAttribute("values",I(n))}:null},invert:function(t,n,r){return(t=yt(r,n))?function(n){n=I(n)+" "+I(1-n),t.map((function(t){return t.setAttribute("tableValues",n)}))}:null},opacity:function(t,n,r){return(t=r.getElementById(n+"-A"))?function(n){return t.setAttribute("tableValues","0 "+I(n))}:null},saturate:function(t){return t?function(n){return t.setAttribute("values",I(n))}:null},sepia:function(t){return t?function(n){return t.setAttribute("values",E(function(t){return[.393+.607*(t=1-t),.769-.769*t,.189-.189*t,0,0,.349-.349*t,.686+.314*t,.168-.168*t,0,0,.272-.272*t,.534-.534*t,.131+.869*t,0,0,0,0,0,1,0]}(n)))}:null}};var ht=["R","G","B"];function yt(t,n){var r=ht.map((function(r){return t.getElementById(n+"-"+r)||null}));return-1!==r.indexOf(null)?null:r}var dt={fill:lt,"fill-opacity":ot,stroke:lt,"stroke-opacity":ot,"stroke-width":ut,"stroke-dashoffset":{f:I,i:d},"stroke-dasharray":at,opacity:ot,transform:function(n,r,e,i){if(!(n=function(n,r){if(!n||"object"!==t(n))return null;var e=!1;for(var i in n)n.hasOwnProperty(i)&&(n[i]&&n[i].length?(n[i].forEach((function(t){t.e&&(t.e=r(t.e))})),e=!0):delete n[i]);return e?n:null}(n,i)))return null;var u=function(t,i,u){var o=arguments.length>3&&void 0!==arguments[3]?arguments[3]:null;return n[t]?e(i,n[t],u):r&&r[t]?r[t]:o};return r&&r.a&&n.o?function(t){var r=e(t,n.o,tt);return rt.recomposeSelf(r,u("r",t,d,0)+r.a,u("k",t,m),u("s",t,m),u("t",t,m)).toString()}:function(t){return rt.recomposeSelf(u("o",t,X,null),u("r",t,d,0),u("k",t,m),u("s",t,m),u("t",t,m)).toString()}},"#filter":function(t,n,r,e,i,u,o,a){if(!n.items||!t||!t.length)return null;var l=function(t,n){var r=(t=t.map((function(t){return t&&vt[t[0]]?(n.getElementById(t[1]),vt[t[0]](n.getElementById(t[1]),t[1],n)):null}))).length;return function(n){for(var e=0;e<r;e++)t[e]&&t[e](n[e].value)}}(n.items,a);return l?(t=function(t,n){return t.map((function(t){return t.e=n(t.e),t}))}(t,e),function(n){l(r(n,t,ct))}):null},"#line":it,points:{f:E,i:x},d:et,r:ut,"#size":q,"#radius":j,_:function(t,n){if(Array.isArray(t))for(var r=0;r<t.length;r++)this[t[r]]=n;else this[t]=n}},gt=function(){function t(r){n(this,t),this.list=r,this.length=r.length}return e(t,[{key:"setAttribute",value:function(t,n){for(var r=this.list,e=0;e<this.length;e++)r[e].setAttribute(t,n)}},{key:"removeAttribute",value:function(t){for(var n=this.list,r=0;r<this.length;r++)n[r].removeAttribute(t)}},{key:"style",value:function(t,n){for(var r=this.list,e=0;e<this.length;e++)r[e].style[t]=n}}]),t}(),mt=/-./g,pt=function(t,n){return n.toUpperCase()};function bt(t){return"function"==typeof t?t:y}function wt(t){return t?"function"==typeof t?t:Array.isArray(t)?function(t){var n=arguments.length>1&&void 0!==arguments[1]?arguments[1]:o;if(!Array.isArray(t))return n;switch(t.length){case 1:return c(t[0])||n;case 2:return c(t[0],t[1])||n;case 4:return l(t[0],t[1],t[2],t[3])||n}return n}(t,null):function(t,n){var r=arguments.length>2&&void 0!==arguments[2]?arguments[2]:o;switch(t){case"linear":return o;case"steps":return c(n.steps||1,n.jump||0)||r;case"bezier":case"cubic-bezier":return l(n.x1||0,n.y1||0,n.x2||0,n.y2||0)||r}return r}(t.type,t.value,null):null}function At(t,n,r){var e=arguments.length>3&&void 0!==arguments[3]&&arguments[3],i=n.length-1;if(t<=n[0].t)return e?[0,0,n[0].v]:n[0].v;if(t>=n[i].t)return e?[i,1,n[i].v]:n[i].v;var u,o=n[0],a=null;for(u=1;u<=i;u++){if(!(t>n[u].t)){a=n[u];break}o=n[u]}return null==a?e?[i,1,n[i].v]:n[i].v:o.t===a.t?e?[u,1,a.v]:a.v:(t=(t-o.t)/(a.t-o.t),o.e&&(t=o.e(t)),e?[u,t,r(t,o.v,a.v)]:r(t,o.v,a.v))}function xt(t,n){var r=arguments.length>2&&void 0!==arguments[2]?arguments[2]:null;return t&&t.length?"function"!=typeof n?null:("function"!=typeof r&&(r=null),function(e){var i=At(e,t,n);return null!=i&&r&&(i=r(i)),i}):null}function kt(t,n){return t.t-n.t}function St(n,r,e,i,u){var o,a="@"===e[0],l="#"===e[0],f=dt[e],s=y;switch(a?(o=e.substr(1),e=o.replace(mt,pt)):l&&(e=e.substr(1)),t(f)){case"function":if(s=f(i,u,At,wt,e,a,r,n),l)return s;break;case"string":s=xt(i,bt(f));break;case"object":if((s=xt(i,bt(f.i),f.f))&&"function"==typeof f.u)return f.u(r,s,e,a,n)}return s?function(t,n,r){if(arguments.length>3&&void 0!==arguments[3]&&arguments[3])return t instanceof gt?function(e){return t.style(n,r(e))}:function(e){return t.style[n]=r(e)};if(Array.isArray(n)){var e=n.length;return function(i){var u=r(i);if(null==u)for(var o=0;o<e;o++)t[o].removeAttribute(n);else for(var a=0;a<e;a++)t[a].setAttribute(n,u)}}return function(e){var i=r(e);null==i?t.removeAttribute(n):t.setAttribute(n,i)}}(r,e,s,a):null}function _t(n,r,e,i){if(!i||"object"!==t(i))return null;var u=null,o=null;return Array.isArray(i)?o=function(t){if(!t||!t.length)return null;for(var n=0;n<t.length;n++)t[n].e&&(t[n].e=wt(t[n].e));return t.sort(kt)}(i):(o=i.keys,u=i.data||null),o?St(n,r,e,o,u):null}function Mt(t,n,r){if(!r)return null;var e=[];for(var i in r)if(r.hasOwnProperty(i)){var u=_t(t,n,i,r[i]);u&&e.push(u)}return e.length?e:null}function It(t,n){if(!n.duration||n.duration<0)return null;var r=function(t,n){if(!n)return null;var r=[];if(Array.isArray(n))for(var e=n.length,i=0;i<e;i++){var u=n[i];if(2===u.length){var o=null;if("string"==typeof u[0])o=t.getElementById(u[0]);else if(Array.isArray(u[0])){o=[];for(var a=0;a<u[0].length;a++)if("string"==typeof u[0][a]){var l=t.getElementById(u[0][a]);l&&o.push(l)}o=o.length?1===o.length?o[0]:new gt(o):null}if(o){var f=Mt(t,o,u[1]);f&&(r=r.concat(f))}}}else for(var s in n)if(n.hasOwnProperty(s)){var c=t.getElementById(s);if(c){var v=Mt(t,c,n[s]);v&&(r=r.concat(v))}}return r.length?r:null}(t,n.elements);return r?function(t,n){var r=arguments.length>2&&void 0!==arguments[2]?arguments[2]:1/0,e=arguments.length>3&&void 0!==arguments[3]?arguments[3]:1,i=arguments.length>4&&void 0!==arguments[4]&&arguments[4],u=arguments.length>5&&void 0!==arguments[5]?arguments[5]:1,o=t.length,a=e>0?n:0;i&&r%2==0&&(a=n-a);var l=null;return function(f,s){var c=f%n,v=1+(f-c)/n;s*=e,i&&v%2==0&&(s=-s);var h=!1;if(v>r)c=a,h=!0,-1===u&&(c=e>0?0:n);else if(s<0&&(c=n-c),c===l)return!1;l=c;for(var y=0;y<o;y++)t[y](c);return h}}(r,n.duration,n.iterations||1/0,n.direction||1,!!n.alternate,n.fill||1):null}var Et=function(){function t(r){var e=arguments.length>1&&void 0!==arguments[1]?arguments[1]:{};n(this,t),this._id=0,this._running=!1,this._animations=r,this.direction=e.direction||1,this.speed=e.speed||1,this.fps=e.fps||100,this.offset=e.offset||0}return e(t,[{key:"_start",value:function(){var t=this,n=arguments.length>0&&void 0!==arguments[0]?arguments[0]:0,r=-1/0,e=null,i={},u=function u(o){t._running=!0,null==e&&(e=o);var a=Math.round((o-e+n)*t.speed),l=t.fps?1e3/t.fps:0;if(a>r+l){t.offset=a,r=a;for(var f=t._animations,s=f.length,c=0,v=0;v<s;v++)i[v]?c++:(i[v]=f[v](a,t.direction),i[v]&&c++);if(c===s)return void t._stop()}t._id=window.requestAnimationFrame(u)};this._id=window.requestAnimationFrame(u)}},{key:"_stop",value:function(){this._id&&window.cancelAnimationFrame(this._id),this._running=!1}},{key:"play",value:function(){this._running||this._start(this.offset)}},{key:"stop",value:function(){this._stop(),this.offset=0;var t=this.direction,n=this._animations;requestAnimationFrame((function(){for(var r=0;r<n.length;r++)n[r](0,t)}))}},{key:"restart",value:function(){this._stop(),this.offset=0,this._start()}},{key:"pause",value:function(){this._stop()}},{key:"reverse",value:function(){this.direction=-this.direction}}],[{key:"build",value:function(n){if(!(n=function(t){if(!t||!t.root||!Array.isArray(t.animations))return null;var n=window.document.getElementById(t.root);if(!n)return null;var r=t.animations.map((function(t){return It(n,t)})).filter((function(t){return!!t}));return r.length?{element:n,animations:r,options:t.options||void 0}:null}(n)))return null;var r=n.element,e=n.options||{},i=new t(n.animations,n.options);return function(t,n,r){var e=arguments.length>3&&void 0!==arguments[3]?arguments[3]:null;if("click"===r){return void n.addEventListener("click",(function r(){n.removeEventListener("click",r),t.play()}))}if("hover"===r)return n.addEventListener("mouseenter",(function(){return t.play()})),void n.addEventListener("mouseleave","freeze"===e?function(){return t.pause()}:function(){return t.stop()});t.play()}(i,r,e.start,e.hover),i}}]),t}();return function(){for(var t=0,n=["ms","moz","webkit","o"],r=0;r<n.length&&!window.requestAnimationFrame;++r)window.requestAnimationFrame=window[n[r]+"RequestAnimationFrame"],window.cancelAnimationFrame=window[n[r]+"CancelAnimationFrame"]||window[n[r]+"CancelRequestAnimationFrame"];window.requestAnimationFrame||(window.requestAnimationFrame=function(n){var r=Date.now(),e=Math.max(0,16-(r-t)),i=window.setTimeout((function(){n(r+e)}),e);return t=r+e,i},window.cancelAnimationFrame=window.clearTimeout)}(),Et}));
__SVGATOR_PLAYER__.build({"root":"e50lr79oe8q51","animations":[{"duration":4000,"direction":1,"iterations":0,"fill":1,"alternate":false,"elements":{"e50lr79oe8q511":{"transform":{"data":{"o":{"x":187.69310000499996,"y":132.79861832,"type":"corner"},"t":{"x":-189.09278872,"y":-132}},"keys":{"r":[{"t":0,"v":0},{"t":2000,"v":9.374381243606337},{"t":4000,"v":0}]}}},"e50lr79oe8q520":{"transform":{"data":{"o":{"x":200.03556578137258,"y":70.91930372800715,"type":"corner"},"t":{"x":-200.03556578137258,"y":-70.91930372800715}},"keys":{"r":[{"t":0,"v":0},{"t":2000,"v":-13.750641358229176},{"t":4000,"v":0}]}}},"e50lr79oe8q534":{"transform":{"data":{"o":{"x":102.59158687499999,"y":257.29135188,"type":"corner"},"t":{"x":-102.59158687499999,"y":-257.29135188}},"keys":{"r":[{"t":0,"v":0},{"t":1000,"v":-3.3202489188302002},{"t":2000,"v":0},{"t":3000,"v":-3.3202489188302002},{"t":4000,"v":0}]}}},"e50lr79oe8q536":{"transform":{"data":{"o":{"x":64.98236881360198,"y":162.16210970515016,"type":"corner"},"t":{"x":-64.98236881360198,"y":-162.16210970515016}},"keys":{"r":[{"t":0,"v":0},{"t":1000,"v":-7.352135303053135},{"t":2000,"v":0}]}}}}}],"options":{"start":"load","hover":"freeze"}})]]></script></svg>